Coordinates
version=1
nRows=32
nColumns=12
inDegrees=yes

Units are S.I. units (second, meters, Newtons, ...)
Angles are in degrees

endheader
time	SC_y	SC_z	SC_x	AC_y	AC_z	AC_x	GH_y	GH_z	GH_yy	EL_x	PS_y
       0.0              -40.96          -2.16           62.5          46.13         -14.51         -11.69         -134.7          73.47          114.8          130.9          25.52
   0.01874              -40.95         -2.155           62.5          46.13          -14.5         -11.69         -134.7          73.46          114.8          130.9          25.52
   0.03748              -40.95          -2.15           62.5          46.13          -14.5         -11.69         -134.7          73.45          114.7          130.9          25.53
   0.05622              -40.95         -2.144           62.5          46.12          -14.5         -11.69         -134.6          73.44          114.7          130.9          25.53
   0.07497              -40.95         -2.139          62.49          46.12          -14.5         -11.69         -134.6          73.43          114.7          130.9          25.54
   0.09371              -40.94         -2.133          62.49          46.12          -14.5         -11.69         -134.6          73.42          114.6          130.9          25.55
    0.1124              -40.94         -2.126          62.49          46.12         -14.49         -11.69         -134.6           73.4          114.6          130.9          25.55
    0.1312              -40.94         -2.119          62.49          46.12         -14.49         -11.69         -134.6          73.39          114.6          130.9          25.56
    0.1499              -40.93         -2.112          62.49          46.12         -14.49         -11.69         -134.6          73.38          114.5          130.9          25.57
    0.1687              -40.93         -2.104          62.49          46.12         -14.49         -11.69         -134.5          73.36          114.5          130.9          25.58
    0.1874              -40.93         -2.095          62.49          46.12         -14.48         -11.69         -134.5          73.34          114.4          130.9          25.59
    0.2062              -40.92         -2.086          62.48          46.12         -14.48         -11.69         -134.5          73.33          114.4          130.9           25.6
    0.2249              -40.92         -2.076          62.48          46.12         -14.47         -11.69         -134.5          73.31          114.3          130.9          25.61
    0.2436              -40.91         -2.065          62.48          46.12         -14.47         -11.69         -134.4          73.29          114.3          130.9          25.62
    0.2624              -40.91         -2.054          62.48          46.12         -14.47         -11.69         -134.4          73.27          114.2          130.8          25.63
    0.2811               -40.9         -2.041          62.48          46.12         -14.46         -11.69         -134.4          73.24          114.1          130.8          25.65
    0.2999              -40.89         -2.028          62.47          46.12         -14.46         -11.69         -134.3          73.22          114.1          130.8          25.66
    0.3186              -40.89         -2.013          62.47          46.12         -14.45         -11.69         -134.3          73.19          114.0          130.8          25.68
    0.3373              -40.88         -1.996          62.47          46.11         -14.44         -11.69         -134.3          73.16          113.9          130.8           25.7
    0.3561              -40.87         -1.979          62.46          46.11         -14.44         -11.69         -134.2          73.12          113.8          130.8          25.72
    0.3748              -40.86         -1.959          62.46          46.11         -14.43         -11.69         -134.2          73.09          113.7          130.8          25.74
    0.3936              -40.85         -1.937          62.46          46.11         -14.42         -11.69         -134.1          73.04          113.6          130.8          25.76
    0.4123              -40.84         -1.914          62.45          46.11         -14.41         -11.69         -134.0           73.0          113.4          130.8          25.79
    0.4311              -40.83         -1.887          62.45          46.11          -14.4         -11.69         -134.0          72.95          113.3          130.7          25.82
    0.4498              -40.81         -1.858          62.44           46.1         -14.39         -11.68         -133.9          72.89          113.1          130.7          25.85
    0.4685               -40.8         -1.825          62.44           46.1         -14.38         -11.68         -133.8          72.83          113.0          130.7          25.89
    0.4873              -40.78         -1.789          62.43           46.1         -14.36         -11.68         -133.7          72.76          112.8          130.7          25.93
     0.506              -40.76         -1.747          62.42           46.1         -14.35         -11.68         -133.6          72.68          112.5          130.7          25.98
    0.5248              -40.74         -1.701          62.41          46.09         -14.33         -11.68         -133.5           72.6          112.3          130.6          26.03
    0.5435              -40.71         -1.648           62.4          46.09         -14.31         -11.68         -133.4          72.49          112.0          130.6          26.09
    0.5622              -40.68         -1.588          62.39          46.08         -14.29         -11.68         -133.2          72.38          111.7          130.6          26.16
     0.581              -40.65         -1.518          62.38          46.08         -14.26         -11.67         -133.0          72.25          111.3          130.5          26.23
